<?xml version="1.0" standalone="no"?>
<!DOCTYPE svg PUBLIC "-//W3C//DTD SVG 20010904//EN"
 "http://www.w3.org/TR/2001/REC-SVG-20010904/DTD/svg10.dtd">
<svg version="1.0" xmlns="http://www.w3.org/2000/svg"
 width="430.000000pt" height="430.000000pt" viewBox="0 0 430.000000 430.000000"
 preserveAspectRatio="xMidYMid meet">

<g transform="translate(0.000000,430.000000) scale(0.100000,-0.100000)"
fill="#000000" stroke="none">
<path d="M2065 3890 c-207 -23 -399 -102 -562 -232 -71 -56 -179 -180 -259
-296 -43 -63 -52 -72 -74 -67 -163 34 -190 37 -280 32 -120 -8 -192 -27 -305
-82 -222 -108 -388 -305 -461 -550 -32 -110 -44 -319 -24 -441 55 -343 308
-628 639 -720 l61 -17 0 -531 c0 -496 2 -534 19 -572 12 -25 33 -50 57 -65
l39 -24 1074 -3 1074 -2 -8 32 c-21 94 -24 118 -25 173 l0 60 -73 1 c-103 1
-139 10 -198 49 l-51 35 -774 0 -774 0 0 508 c0 339 -4 520 -11 547 -6 22 -28
56 -48 76 -29 29 -47 38 -86 43 -166 21 -257 55 -352 128 -58 44 -131 135
-168 209 -55 107 -72 283 -40 403 59 221 263 386 479 386 104 0 183 -27 289
-100 99 -67 149 -78 187 -40 20 20 23 29 39 123 23 129 92 249 211 367 278
274 680 291 976 41 85 -71 146 -148 212 -266 94 -168 108 -174 287 -130 131
33 255 42 334 25 242 -53 421 -288 421 -553 0 -241 -152 -453 -384 -535 -67
-24 -87 -26 -366 -33 -340 -9 -671 -38 -905 -81 -114 -21 -123 -17 318 -119
560 -129 726 -155 872 -139 373 42 650 274 762 637 25 81 27 102 27 258 1 147
-2 181 -22 254 -93 342 -348 591 -672 657 -89 18 -270 15 -336 -4 -31 -10 -32
-9 -115 95 -224 283 -474 430 -784 463 -100 11 -119 11 -220 0z"/>
<path d="M3210 1388 c-13 -7 -35 -29 -47 -47 -21 -31 -23 -45 -23 -172 l0
-139 -122 0 c-209 0 -238 -20 -238 -167 0 -73 3 -85 26 -112 34 -41 77 -51
217 -51 l117 0 0 -136 c0 -105 4 -144 16 -170 42 -89 208 -100 272 -19 20 26
22 39 22 176 l0 149 133 0 c211 1 253 32 245 186 -6 123 -42 144 -250 144
l-128 0 0 145 0 145 -34 37 c-33 36 -37 38 -108 41 -46 2 -82 -2 -98 -10z"/>
</g>
</svg>
